<svg xmlns="http://www.w3.org/2000/svg" width="120" height="28" viewBox="0 0 120 28">
  <g fill="none" fill-rule="evenodd" transform="translate(0 4)">
    <path fill="#261440" d="M68.9235805,10.2399943 C67.8517645,10.2399943 67.0439837,9.31708832 67.0439837,7.90939601 C67.0439837,6.48592023 67.8517645,5.54740171 68.9235805,5.54740171 C69.9333206,5.54740171 70.6633507,6.43896866 70.6633507,7.90939601 C70.6633507,9.45777208 69.9954532,10.2399943 68.9235805,10.2399943 Z M69.3430041,3.54523647 C68.1624842,3.54523647 67.2925142,4.06136182 66.7488255,4.96871225 L66.3138405,3.76432479 L64.8692286,3.76432479 L64.8692286,15.3391396 L67.168249,15.3391396 L67.168249,11.303641 C67.7120509,11.9136695 68.4576424,12.2734986 69.3585655,12.2734986 C71.5953966,12.2734986 72.977989,10.6935556 72.977989,7.90939601 C72.977989,5.12500855 71.6109581,3.54523647 69.3430041,3.54523647 Z M73.9968396,12.0544672 L76.2959165,12.0544672 L76.2959165,3.76432479 L73.9968396,3.76432479 L73.9968396,12.0544672 Z M59.8476902,10.2399943 C58.7758175,10.2399943 57.9680934,9.31708832 57.9680934,7.90939601 C57.9680934,6.48592023 58.7758175,5.54740171 59.8476902,5.54740171 C60.8573737,5.54740171 61.5874603,6.43896866 61.5874603,7.90939601 C61.5874603,9.45777208 60.9195629,10.2399943 59.8476902,10.2399943 Z M60.2670571,3.54523647 C59.0864806,3.54523647 58.2166239,4.06136182 57.6729917,4.96871225 L57.2380067,3.76432479 L55.7932817,3.76432479 L55.7932817,15.3391396 L58.0923586,15.3391396 L58.0923586,11.303641 C58.6359342,11.9136695 59.3816389,12.2734986 60.2826752,12.2734986 C62.5195629,12.2734986 63.9020421,10.6935556 63.9020421,7.90939601 C63.9020421,5.12500855 62.5350677,3.54523647 60.2670571,3.54523647 Z M53.0860987,0.0884273504 C52.293936,0.0884273504 51.6569917,0.729737892 51.6569917,1.52745869 C51.6569917,2.32512251 52.293936,2.98215954 53.0860987,2.98215954 C53.8784311,2.98215954 54.5307671,2.32512251 54.5307671,1.52745869 C54.5307671,0.729737892 53.8784311,0.0884273504 53.0860987,0.0884273504 Z M89.6194037,7.64352707 C88.8738122,7.64352707 88.4077609,7.17412536 88.4077609,6.42335613 C88.4077609,5.67252991 88.8893171,5.20318519 89.6505266,5.20318519 C90.3961747,5.20318519 90.8311597,5.65691738 90.8311597,6.42335613 C90.8311597,7.17412536 90.3806133,7.64352707 89.6194037,7.64352707 Z M88.3922561,12.0075157 L90.3496035,12.0075157 C91.1573277,12.0075157 91.5146186,12.2734986 91.5146186,12.852188 C91.5146186,13.4934986 90.8777309,13.8375442 89.6661447,13.8375442 C88.5631491,13.8375442 87.9572711,13.4934986 87.9572711,12.8678006 C87.9572711,12.523755 88.1126592,12.2107635 88.3922561,12.0075157 Z M94.1864912,3.54523647 L93.9534656,3.54523647 C93.1457415,3.54523647 92.617501,3.74854131 92.0428025,4.35862678 C91.4680474,3.84250142 90.6291438,3.54523647 89.6194037,3.54523647 C87.6155982,3.54523647 86.2951385,4.68705983 86.2951385,6.43896866 C86.2951385,7.37748718 86.6836088,8.15959544 87.3514497,8.66016524 C86.5902967,8.98859829 86.2019961,9.53606268 86.2019961,10.2713333 C86.2019961,10.8500228 86.4350218,11.3191966 86.885455,11.6164615 C86.1553118,11.9605071 85.7203834,12.5393675 85.7203834,13.2587977 C85.7203834,14.7292251 87.0873011,15.5582279 89.5418228,15.5582279 C92.2136389,15.5582279 93.8602101,14.4631852 93.8602101,12.7113333 C93.8602101,11.1315043 92.7417662,10.2243818 90.7689705,10.2085983 L88.8583073,10.2085983 C88.3146186,10.2085983 88.0815929,10.052245 88.0815929,9.70808547 C88.0815929,9.47355556 88.221363,9.3014188 88.5164647,9.20751567 C88.8428025,9.28586325 89.2155982,9.33264387 89.6194037,9.33264387 C91.6233224,9.33264387 92.9437256,8.17526496 92.9437256,6.43896866 C92.9437256,6.12614815 92.8971544,5.84460969 92.8194603,5.56301425 L94.1864912,5.56301425 L94.1864912,3.54523647 Z M75.1463498,0.0884273504 C74.3541305,0.0884273504 73.7171862,0.729737892 73.7171862,1.52745869 C73.7171862,2.32512251 74.3541305,2.98215954 75.1463498,2.98215954 C75.9386256,2.98215954 76.5910182,2.32512251 76.5910182,1.52745869 C76.5910182,0.729737892 75.9386256,0.0884273504 75.1463498,0.0884273504 Z M82.2340527,3.54523647 C81.0379148,3.54523647 80.1835063,4.0145812 79.6708838,4.7965755 L79.2980315,3.76432479 L77.8534762,3.76432479 L77.8534762,12.0544672 L80.1524966,12.0544672 L80.1524966,7.2211339 C80.1524966,6.28261538 80.6650624,5.62557835 81.5971084,5.62557835 C82.3738228,5.62557835 82.7311137,6.03235897 82.7311137,6.81435328 L82.7311137,12.0544672 L85.030134,12.0544672 L85.030134,6.20432479 C85.030134,4.51509402 83.8806239,3.54523647 82.2340527,3.54523647 Z M7.19894748,7.0334416 L0.845518656,0.0258632479 L0.0532993811,0.0258632479 L0.0532993811,12.0544672 L2.29018709,12.0544672 L2.29018709,5.20318519 L8.62805447,12.195151 L9.43583519,12.195151 L9.43583519,0.166603989 L7.19894748,0.166603989 L7.19894748,7.0334416 Z M21.6406522,4.67144729 L21.2522384,3.76432479 L19.6988661,3.76432479 L19.6988661,12.0544672 L21.9978299,12.0544672 L21.9978299,5.78210256 L24.4212286,5.78210256 L24.4212286,3.54523647 L24.2347742,3.54523647 C23.178463,3.54523647 22.4018051,3.9362906 21.6406522,4.67144729 Z M51.9367017,12.0544672 L54.2357786,12.0544672 L54.2357786,3.76432479 L51.9367017,3.76432479 L51.9367017,12.0544672 Z M29.4667034,7.1585698 L28.0531579,6.65805698 C27.4783462,6.47030769 27.2298157,6.23566382 27.2298157,5.87583476 C27.2298157,5.43788604 27.5715452,5.15640456 28.1152905,5.15640456 C28.798806,5.15640456 29.2026115,5.50045014 29.3890094,6.25127635 L31.2065302,5.67252991 C30.8337344,4.24911111 29.8084895,3.54523647 28.1307388,3.54523647 C26.2977698,3.54523647 25.1016318,4.56193162 25.1016318,6.0948661 C25.1016318,7.18979487 25.754081,8.01891168 26.9347141,8.45674644 L28.3171933,8.97304274 C28.798806,9.12939601 29.18705,9.36403989 29.18705,9.81760114 C29.18705,10.3025584 28.7832446,10.6623305 28.1774798,10.6623305 C27.4628414,10.6623305 26.8725814,10.1618177 26.6705655,9.36403989 L24.8530447,9.95834188 C25.25702,11.4757208 26.4065302,12.2734986 28.1774798,12.2734986 C30.1346009,12.2734986 31.4394992,11.1472877 31.4394992,9.44221652 C31.4394992,8.40990883 30.7404789,7.59651852 29.4667034,7.1585698 Z M14.6185903,10.2399943 C13.7331155,10.2399943 12.8942684,9.70808547 12.8942684,7.90939601 C12.8942684,6.11047863 13.7331155,5.54740171 14.6185903,5.54740171 C15.5040085,5.54740171 16.3739218,6.23566382 16.3739218,7.90939601 C16.3739218,9.7394245 15.5040085,10.2399943 14.6185903,10.2399943 Z M14.6185903,3.54523647 C12.3661411,3.54523647 10.5797998,5.10939601 10.5797998,7.90939601 C10.5797998,10.7091111 12.3661411,12.2734986 14.6185903,12.2734986 C16.8399165,12.2734986 18.6729988,10.7091111 18.6729988,7.90939601 C18.6729988,5.10939601 16.855478,3.54523647 14.6185903,3.54523647 Z M42.5614656,2.41902564 L45.6837715,2.41902564 L45.6837715,12.0544672 L48.0914957,12.0544672 L48.0914957,2.41902564 L50.9627247,2.41902564 L50.9627247,0.166603989 L42.5614656,0.166603989 L42.5614656,2.41902564 Z M40.2325673,3.76432479 L37.498562,3.76432479 L34.6713577,7.48700285 L34.6713577,0.166603989 L32.3722808,0.166603989 L32.3722808,12.0544672 L34.6713577,12.0544672 L34.6713577,8.19082051 L37.5762561,12.0544672 L40.3878989,12.0544672 L37.0325107,7.83104843 L40.2325673,3.76432479 Z" transform="translate(25.351 3.932)"/>
    <polygon fill="#FFC000" points="4.048 0 0 4.076 5.856 9.972 0 15.867 4.048 19.943 13.951 9.972"/>
    <polygon fill="#96D94E" points="5.856 9.972 13.951 9.972 0 4.076"/>
    <polygon fill="#00A332" points="4.048 0 0 4.076 13.951 9.972"/>
    <polygon fill="#FF7337" points="5.856 9.972 4.048 19.943 13.951 9.972"/>
    <polygon fill="#FF7EA9" points="15.757 0 10.82 4.971 14.869 9.047 19.805 4.076"/>
    <polygon fill="#EF2500" points="15.757 0 14.869 9.047 19.805 4.076"/>
    <polygon fill="#00C1FF" points="19.805 15.867 14.869 10.896 10.82 14.972"/>
    <polygon fill="#0058FF" points="15.757 19.943 19.805 15.867 10.82 14.972"/>
  </g>
</svg>
