<svg width="128" height="143" viewBox="0 0 128 143" fill="none" xmlns="http://www.w3.org/2000/svg">
<path d="M106.89 92.1537C118.826 88.1363 122.99 79.6482 122.99 72.9318C122.99 47.6117 90.6452 45.3867 79.3275 45.9842C79.1898 41.7974 78.1193 37.6941 76.1939 33.9731C75.9465 33.3138 75.658 32.6751 75.3693 32.057C77.6834 30.5426 79.5919 28.4857 80.9286 26.0655C82.2652 23.6453 82.9894 20.9351 83.0382 18.1712C83.0382 9.31222 75.6786 0 55.4963 0C29.7479 0 6.49387 12.5056 6.49387 33.8907C6.49387 45.943 16.3479 55.8732 31.5001 57.7068C18.1209 64.2583 13.2557 76.2488 9.56554 84.2631C7.35971 89.1458 5.44249 94.1727 2.0616 96.3154C1.47204 96.6307 0.973074 97.0916 0.612214 97.6542C0.251354 98.2168 0.040615 98.8623 7.39088e-05 99.5293C-0.00572192 100.4 0.329561 101.239 0.934311 101.867C1.53906 102.494 2.36534 102.861 3.23666 102.887C8.10186 102.887 13.2557 92.3597 15.4615 87.168C19.7288 76.8669 26.202 62.7337 46.0751 59.9936C46.8724 59.8731 47.5979 59.465 48.1145 58.8462C48.6311 58.2275 48.903 57.441 48.8788 56.6355C48.9153 56.1996 48.8635 55.7608 48.7265 55.3454C48.5895 54.9299 48.3702 54.5463 48.0815 54.2175C47.7929 53.8887 47.4409 53.6213 47.0466 53.4315C46.6523 53.2416 46.2237 53.1331 45.7865 53.1125C30.0365 53.1125 13.1114 47.9208 13.1114 33.8907C13.1114 15.8843 35.1903 6.26309 55.4963 6.26309C68.1746 6.26309 76.4001 11.1458 76.4001 18.1712C76.367 19.7631 75.9574 21.3247 75.205 22.7283C74.4526 24.1319 73.3787 25.3377 72.0709 26.2473C66.7728 19.3867 58.3824 15.9462 47.6418 15.9462C36.9013 15.9462 29.2325 21.1173 29.2325 27.9984C29.2325 34.4057 36.9013 39.1442 51.0227 39.1442C57.2369 39.1198 63.3887 37.9028 69.1435 35.5594C70.6519 39.2442 71.8248 43.0573 72.6481 46.9525C60.918 49.3423 54.6716 56.1823 54.6716 63.6197C54.6716 70.3154 59.743 75.8368 69.2672 77.7734C66.4429 88.7956 63.763 100.106 63.763 110.984C63.763 133.647 78.0699 143 95.799 143C112.951 143 128 133.914 128 115.743C128 107.399 123.238 94.7496 106.972 92.2155L106.89 92.1537ZM51.0227 32.737C40.4265 32.737 35.8706 30.141 35.8706 27.9984C35.8706 24.9493 40.2822 22.6419 47.6418 22.6419C59.4131 22.6419 64.4226 27.5452 66.4841 29.6672C61.548 31.5805 56.3159 32.6193 51.0227 32.737ZM61.3303 63.6403C61.3303 59.5198 64.9174 54.6989 72.9573 52.9065C72.4298 59.3779 71.4308 65.8022 69.9681 72.1284C65.8451 71.2425 61.3303 68.7084 61.3303 63.6403ZM95.7578 137.52C83.6979 137.52 70.4217 130.803 70.4217 110.737C70.4298 107.389 70.6432 104.046 71.0607 100.724C72.1926 93.322 73.8529 86.0102 76.029 78.8447C84.8729 78.4739 93.82 71.6545 93.82 64.5468C93.82 62.7544 93.8199 59.1902 90.3978 59.1902C89.9832 59.1788 89.5707 59.2521 89.1854 59.4054C88.8 59.5588 88.4501 59.789 88.1568 60.0821C87.8635 60.3752 87.6331 60.7249 87.4797 61.11C87.3262 61.4951 87.2529 61.9074 87.2643 62.3217C87.2643 62.7544 87.5735 64.2583 87.5735 64.5468C87.5735 69.5737 79.781 72.3138 77.2659 72.9731C78.4679 65.9989 79.2732 58.9623 79.6779 51.897C93.5107 51.1759 105.983 55.1727 111.776 60.9826C113.385 62.5346 114.643 64.4135 115.465 66.4926C116.286 68.5716 116.652 70.8025 116.538 73.0349C116.538 79.4422 110.724 89.8669 89.4083 90.1759C88.5423 90.1866 87.7148 90.5352 87.1024 91.1472C86.49 91.7592 86.1412 92.5862 86.1305 93.4517C86.115 93.8733 86.1916 94.2932 86.355 94.6823C86.5184 95.0714 86.7647 95.4202 87.0766 95.7045C87.3886 95.9888 87.7588 96.2018 88.1614 96.3286C88.5641 96.4555 88.9896 96.4931 89.4083 96.439C109.838 94.935 121.321 102.991 121.321 115.784C121.321 130.536 108.044 137.54 95.8196 137.54" fill="#44E712"/>
</svg>
