<?xml version="1.0" encoding="UTF-8"?>
<svg id="Layer_1-2" data-name="Layer 1" xmlns="http://www.w3.org/2000/svg" width="306.76" height="107.56" xmlns:xlink="http://www.w3.org/1999/xlink" viewBox="0 0 306.76 107.56">
  <defs>
    <style>
      .cls-1 {
        fill: #000;
        stroke-width: 0px;
      }
    </style>
    <symbol id="_Partners_Logo_Svart" data-name="&amp;amp;Partners_Logo_Svart" viewBox="0 0 278.25 73.63">
      <g id="Layer_1" data-name="Layer 1">
        <g>
          <path class="cls-1" d="m109.15,69.11l-9.57-12.74c3.05-.52,5.44-1.61,7.18-3.28s2.6-3.85,2.6-6.55c0-3.36-1.28-5.9-3.85-7.62-2.57-1.72-6.03-2.57-10.4-2.57h-15.39v.73c1.8.14,3.07.48,3.8,1.01.73.54,1.09,1.55,1.09,3.04v25.79c0,1.56-.37,2.63-1.12,3.2-.75.57-2,.86-3.77.86-1.49,0-2.7-.35-3.64-1.04-.94-.69-1.79-1.87-2.55-3.54l-13.47-30.89h-.88l-13.68,31.98c-.69,1.63-1.42,2.76-2.18,3.38-.76.62-1.86,1.01-3.28,1.14v.78h11.18v-.78c-1.32-.07-2.26-.26-2.83-.57-.57-.31-.86-.8-.86-1.46s.22-1.49.68-2.5l2.65-6.29h14.92l2.7,6.29c.52,1.08.78,1.92.78,2.55s-.28,1.09-.83,1.4-1.47.5-2.76.57v.78h28.76v-.78c-1.77-.1-3.02-.42-3.74-.94-.73-.52-1.09-1.56-1.09-3.12v-11.28h4.47l9.78,13.31c.14.21.4.61.78,1.2.38.59.64,1.13.78,1.61h9.15v-.78c-.97-.07-1.96-.37-2.96-.91-1.01-.54-1.82-1.2-2.44-2Zm-57.3-10.24l6.5-15.13,6.45,15.13h-12.95Zm37.75-4.47v-15.76h4.89c3.12,0,5.49.68,7.1,2.03,1.61,1.35,2.42,3.31,2.42,5.88s-.81,4.52-2.42,5.85c-1.61,1.33-3.98,2-7.1,2h-4.89Z"/>
          <path class="cls-1" d="m113.88,36.35l-1.4,9.78h.78c.62-2.63,1.65-4.54,3.07-5.72,1.42-1.18,3.36-1.77,5.82-1.77h3.43v29.33c0,1.49-.37,2.51-1.12,3.07-.75.56-2.02.88-3.82.99v.78h14.77v-.78c-1.84-.1-3.12-.43-3.85-.99-.73-.55-1.09-1.58-1.09-3.07v-29.33h3.43c2.46,0,4.4.59,5.82,1.77,1.42,1.18,2.44,3.09,3.07,5.72h.78l-1.4-9.78h-28.29Z"/>
          <path class="cls-1" d="m210.52,68.72c-1.4,1.16-3.35,1.74-5.85,1.74h-7.85c-.97,0-1.67-.26-2.11-.78s-.65-1.37-.65-2.55v-11.91h6.92c1.32,0,2.31.16,2.99.47.68.31,1.13.81,1.38,1.48.24.68.38,1.64.42,2.89h.78v-11.96h-.78c-.04,1.25-.17,2.21-.42,2.89-.24.68-.7,1.16-1.38,1.46-.68.29-1.67.44-2.99.44h-6.92v-14.25h9.98c2.46,0,4.41.59,5.85,1.77,1.44,1.18,2.47,3.09,3.09,5.72h.78l-1.51-9.78h-43.26v.73c2.18.14,3.69.53,4.52,1.17.83.64,1.25,1.78,1.25,3.41v22.1l-20.12-27.4h-9v.73c1.18.07,2.15.31,2.91.73.76.42,1.56,1.08,2.39,1.98v27.72c0,1.63-.35,2.76-1.04,3.38s-1.99,1.01-3.9,1.14v.78h13.21v-.78c-1.49-.1-2.64-.29-3.46-.57-.82-.28-1.4-.73-1.74-1.35-.35-.62-.52-1.49-.52-2.6v-24.39l22.52,30.52h1.3v-30.94c0-1.63.49-2.8,1.48-3.51.99-.71,2.45-1.07,4.39-1.07,1.84,0,3.28.3,4.32.91,1.04.61,1.56,1.66,1.56,3.15v25.79c0,1.56-.36,2.6-1.09,3.12-.73.52-1.99.83-3.8.94v.78h28.76l1.4-9.83h-.78c-.62,2.67-1.64,4.58-3.04,5.75Z"/>
          <path class="cls-1" d="m246.84,69.11l-9.57-12.74c3.05-.52,5.44-1.61,7.18-3.28,1.73-1.66,2.6-3.85,2.6-6.55,0-3.36-1.28-5.9-3.85-7.62-2.57-1.72-6.03-2.57-10.4-2.57h-15.39v.73c1.8.14,3.07.48,3.8,1.01.73.54,1.09,1.55,1.09,3.04v26.83c0,1.56-.36,2.6-1.09,3.12-.73.52-1.99.83-3.8.94v.78h14.72v-.78c-1.77-.1-3.02-.42-3.74-.94-.73-.52-1.09-1.56-1.09-3.12v-11.28h4.47l9.78,13.31c.14.21.4.61.78,1.2.38.59.64,1.13.78,1.61h9.15v-.78c-.97-.07-1.96-.37-2.96-.91-1.01-.54-1.82-1.2-2.44-2Zm-19.55-14.72v-15.76h4.89c3.12,0,5.49.68,7.1,2.03,1.61,1.35,2.42,3.31,2.42,5.88s-.81,4.52-2.42,5.85c-1.61,1.33-3.98,2-7.1,2h-4.89Z"/>
          <path class="cls-1" d="m276.64,57.64c-1.08-1.44-2.38-2.57-3.9-3.41s-3.54-1.72-6.03-2.65c-2.15-.83-3.84-1.56-5.07-2.18-1.23-.62-2.26-1.44-3.09-2.44-.83-1-1.25-2.24-1.25-3.69,0-1.77.67-3.1,2-4,1.33-.9,3.09-1.35,5.28-1.35,4.68,0,7.61,2.29,8.79,6.86l4.63-1.4c-.83-2.43-2.4-4.34-4.71-5.75-2.31-1.4-5.02-2.11-8.14-2.11-2.39,0-4.51.42-6.34,1.25-1.84.83-3.26,1.98-4.26,3.46-1.01,1.47-1.51,3.18-1.51,5.12,0,2.05.49,3.74,1.48,5.1.99,1.35,2.2,2.41,3.64,3.17,1.44.76,3.34,1.59,5.69,2.5,2.15.83,3.87,1.59,5.17,2.26,1.3.68,2.38,1.57,3.25,2.68.87,1.11,1.3,2.5,1.3,4.16,0,1.98-.69,3.48-2.08,4.5-1.39,1.02-3.24,1.53-5.56,1.53s-4.46-.67-6.19-2c-1.73-1.33-2.86-3.23-3.38-5.69l-4.63,1.35c.69,2.67,2.29,4.79,4.78,6.37,2.5,1.58,5.42,2.37,8.79,2.37,2.63,0,4.92-.44,6.86-1.33,1.94-.88,3.44-2.12,4.5-3.72,1.06-1.59,1.59-3.45,1.59-5.56s-.54-3.94-1.61-5.38Z"/>
          <path class="cls-1" d="m27.3,67.86v-9.98h3.33c9.78,0,14.09-4.52,14.09-11.54,0-9-9.62-13.57-17.68-18.98.88-2.03,1.35-4.16,1.35-6.34s-.16-4.06-.47-5.88l-5.36,2.7c1.09,2.03,1.66,4.52,1.66,7.7-4.16-2.81-8.16-5.67-11.08-8.84,6.97-2.39,9.67-5.67,9.67-9.2,0-4.26-3.59-7.49-9.31-7.49S4,3.33,4,8.22c0,3.48,1.35,6.6,3.43,9.46-4.63,1.66-7.44,5.3-7.44,10.04,0,5.98,4.63,9.98,11.54,9.98,5.41,0,9.93-2.5,12.95-6.08,8.16,5.25,14.72,8.84,14.72,14.72,0,5.3-2.6,9-9.93,9h-1.98v-13.62h-10.24v.73c1.92.1,3.22.47,4,.99.83.57,1.2,1.56,1.2,3.07v21.48c0,2.65-1.04,3.85-5.2,4.06v.78h15.7v-.78c-3.9-.21-5.46-.94-5.46-4.16ZM13.21,1.46c3.07,0,5.04,2.7,5.04,6.24,0,3.12-3.02,6.14-6.24,7.9-2.44-2.5-3.28-5.2-3.28-8.84,0-3.12,1.92-5.3,4.47-5.3Zm.26,33.7c-5.46,0-8.63-3.8-8.63-8.84,0-3.02,1.35-5.62,3.64-7.28,3.64,4.32,9,8.01,14.09,11.34-1.77,2.91-4.94,4.78-9.1,4.78Z"/>
        </g>
      </g>
    </symbol>
  </defs>
  <use width="278.25" height="73.63" transform="translate(10.05 22.71)" xlink:href="#_Partners_Logo_Svart"/>
</svg>