<?xml version="1.0" encoding="utf-8"?>
<!-- Generator: Adobe Illustrator 25.2.1, SVG Export Plug-In . SVG Version: 6.00 Build 0)  -->
<svg version="1.1" id="SB1_Østlandet" xmlns="http://www.w3.org/2000/svg" xmlns:xlink="http://www.w3.org/1999/xlink" x="0px"
	 y="0px" viewBox="0 0 263.4 78.2" style="enable-background:new 0 0 263.4 78.2;" xml:space="preserve">
<style type="text/css">
	.st0{fill:#E60000;}
	.st1{fill:#AF0000;}
	.st2{fill:#FFFFFF;}
	.st3{fill:none;}
	.st4{fill:#002776;}
</style>
<g>
	<g>
		<g>
			<path class="st0" d="M224.4,11.4c-2.9,0-5.8,0.5-8.4,1.3c11.2-2.4,22.2,2.2,26.2,11.6c4.6,10.9-2,24.1-14.7,29.5
				c-11.4,4.8-23.9,1.7-29.7-6.8c3.4,11.5,14,19.9,26.6,19.9c15.3,0,27.8-12.4,27.8-27.8S239.7,11.4,224.4,11.4z"/>
			<path class="st1" d="M227.4,53.8c12.7-5.4,19.3-18.6,14.7-29.5c-4-9.4-15.1-14-26.2-11.6c-11.2,3.6-19.3,14.1-19.3,26.5
				c0,2.7,0.4,5.3,1.1,7.8C203.5,55.5,216,58.6,227.4,53.8z"/>
			<g>
				<path class="st2" d="M231.5,51.7V23.2c0-0.6-0.5-1-1-1H224c-0.5,0-0.7,0.1-1.1,0.3l-8.3,4.3c-0.5,0.2-0.7,0.5-0.7,1v4.7
					c0,0.5,0.4,1,1,1h5.3v22.4c2.4-0.3,4.9-1,7.3-2C228.9,53.1,230.2,52.4,231.5,51.7z"/>
				<path class="st3" d="M221.2,60.3h9.3c0.6,0,1-0.5,1-1v-7.6c-1.3,0.8-2.6,1.5-4,2.1c-2.4,1-4.9,1.7-7.3,2v3.5
					C220.1,59.9,220.6,60.3,221.2,60.3z"/>
			</g>
		</g>
		<g>
			<g>
				<path class="st4" d="M26.8,40.8c-4.6,0-8.3-1.1-9-1.3c-0.4-0.1-0.5-0.4-0.5-0.7v-0.2l0.5-2.3c0.1-0.4,0.3-0.5,0.6-0.5
					c0.1,0,0.1,0,0.2,0c0.7,0.1,4.4,1.2,7.8,1.2c2.9,0,5.5-0.9,5.5-3.9c0-3.1-2.7-3.4-6.1-3.9C22,28.6,17,27.6,17,21.6
					c0-6.2,4.6-7.9,10.1-7.9c4.2,0,7.6,1,8.4,1.2c0.4,0.1,0.6,0.4,0.6,0.7v0.2l-0.5,2.3c0,0.2-0.3,0.5-0.6,0.5c0,0-0.1,0-0.1,0
					c-1.7-0.4-4.3-1.1-7.5-1.1c-2.6,0-5.4,0.5-5.4,3.5c0,3,3,3.4,6.1,3.8c4.2,0.6,8.9,1.2,8.9,7.9C37.1,39,32.1,40.8,26.8,40.8z"/>
				<path class="st4" d="M72,40.3c-1.2,0.3-3,0.5-4.9,0.5c-3.8,0-8.6-0.4-8.6-6c0-4.6,2.9-5.1,5.7-5.5l6.3-1v-1.1c0-1-0.1-1.7-1-2.1
					c-0.6-0.2-1.4-0.4-2.7-0.4c-2.4,0-5,0.7-6.1,1c-0.1,0-0.2,0-0.2,0c-0.2,0-0.4-0.1-0.4-0.3l-0.5-2.2V23c0-0.3,0.2-0.5,0.4-0.5
					c0.9-0.3,4.1-1.2,7.7-1.2c2.5,0,4.2,0.4,5.4,1c1.8,1,2.2,2.7,2.2,4.6v9.8C75.3,39.3,74.4,39.8,72,40.3z M70.5,31.3L66.1,32
					c-1.5,0.2-2.8,0.4-2.8,2.7c0,2.8,2.2,3,3.9,3c1.4,0,2.5-0.2,3.3-0.5V31.3z"/>
				<path class="st4" d="M87.9,24.9c-2.2,0-4,0.2-5,0.5v14.5c0,0.3-0.2,0.5-0.5,0.5h-3.6c-0.2,0-0.6-0.2-0.6-0.5V24.5
					c0-1.4,0.8-1.8,2.5-2.3c1.6-0.5,4.1-0.9,6.1-0.9h0.6c0.5,0,0.5,0,0.7,0.1c0.1,0.1,0.3,0.2,0.3,0.6v2.3
					C88.5,24.6,88.4,24.9,87.9,24.9z"/>
				<path class="st4" d="M106.5,32.4c0,0.4-0.2,0.8-0.7,0.8H93.9c0,1.6,0.5,2.5,1.4,3.3c0.9,0.7,2.3,1.1,4.2,1.1
					c2.2,0,3.9-0.5,5-0.9c0.1,0,0.1,0,0.2,0c0.2,0,0.4,0.1,0.5,0.5l0.5,1.8c0,0,0,0.1,0,0.2c0,0.3-0.2,0.4-0.4,0.5
					c-1.2,0.5-3.6,1.1-6.4,1.1c-7,0-9.7-2.7-9.7-9.7c0-6.7,1.8-9.9,8.8-9.9c3.6,0,5.8,0.9,7.1,2.6c1.2,1.6,1.6,3.9,1.6,6.8V32.4z
					 M101.5,27.1c-0.5-2-1.5-2.6-3.6-2.6c-2.4,0-3.4,0.7-3.8,2.5c-0.2,1-0.2,2-0.3,3.2l8,0C101.8,29,101.8,28.1,101.5,27.1z"/>
				<path class="st4" d="M147,40.3c-1.2,0.3-3,0.5-4.9,0.5c-3.8,0-8.6-0.4-8.6-6c0-4.6,2.9-5.1,5.7-5.5l6.3-1v-1.1
					c0-1-0.1-1.7-1-2.1c-0.6-0.2-1.4-0.4-2.7-0.4c-2.4,0-5,0.7-6.1,1c-0.1,0-0.2,0-0.2,0c-0.2,0-0.4-0.1-0.4-0.3l-0.5-2.2V23
					c0-0.3,0.2-0.5,0.4-0.5c0.9-0.3,4.1-1.2,7.7-1.2c2.5,0,4.2,0.4,5.4,1c1.8,1,2.2,2.7,2.2,4.6v9.8C150.3,39.3,149.4,39.8,147,40.3
					z M145.5,31.3l-4.4,0.7c-1.5,0.2-2.8,0.4-2.8,2.7c0,2.8,2.2,3,3.9,3c1.4,0,2.5-0.2,3.3-0.5V31.3z"/>
				<path class="st4" d="M169.3,40.4h-3.7c-0.3,0-0.6-0.2-0.6-0.5V27.3c0-2.1-0.8-2.8-2.7-2.8c-2.1,0-4.4,0.6-4.4,0.6v14.7
					c0,0.3-0.2,0.5-0.5,0.5h-3.6c-0.4,0-0.6-0.2-0.6-0.5V24.5c0-1.4,0.7-1.8,2.7-2.3c1.8-0.5,4.8-0.9,7.1-0.9c4.4,0,6.9,1.1,6.9,5.4
					v13.2C169.8,40.2,169.6,40.4,169.3,40.4z"/>
				<path class="st4" d="M189.9,40.1c0,0.1-0.1,0.3-0.4,0.3h-4.8c-0.2,0-0.4,0-0.5-0.2l-5.5-7.5h-1.2v7.2c0,0.3-0.2,0.5-0.5,0.5
					h-3.7c-0.3,0-0.6-0.2-0.6-0.5V15c0-0.4,0.2-0.6,0.6-0.7l3.5-0.6h0.1c0.3,0,0.5,0.2,0.5,0.6v15.2h1.2l5.6-7.5
					c0.1-0.2,0.3-0.2,0.5-0.2l4.3,0.1c0.2,0,0.4,0.2,0.4,0.3c0,0.1,0,0.1-0.1,0.2l-6.7,8.5l7.1,9.1C189.9,39.9,189.9,40,189.9,40.1z
					"/>
				<path class="st4" d="M44.5,37.1"/>
				<path class="st4" d="M49.2,21.2c-2.4,0-5.1,0.4-7.3,1.1c-1.6,0.5-2.2,1-2.2,2.9v20.4c0,0.4,0.3,0.6,0.8,0.6
					c0.5-0.1,3.4-0.6,3.4-0.6c0.4-0.1,0.6-0.3,0.6-0.7v-4.6c1.3,0.3,2.9,0.5,4.6,0.5c6.6,0,7.9-4.2,7.9-9.8
					C56.9,25.4,56.1,21.2,49.2,21.2z M47.8,37.6c-1.9,0-3.4-0.4-3.4-0.4v-12c0,0,2.1-0.6,3.7-0.6c2.7,0,3.9,0.6,3.9,6.4
					C52.1,36.4,51.1,37.6,47.8,37.6z"/>
				<path class="st4" d="M122.2,40.4h-11.8c-0.3,0-0.6-0.2-0.6-0.6V14.7c0-0.3,0.3-0.6,0.6-0.6h11.9c6,0,8.5,2.4,8.5,6.6
					c0,3.8-2.1,5.1-5.3,6c3.6,0.6,6.2,2.5,6.2,6.7C131.6,38.3,128.2,40.4,122.2,40.4z M121.7,17.8h-6.9v7.6l6.6-0.3
					c2.7-0.1,4.1-1.1,4.1-3.8C125.5,18.8,124.3,17.8,121.7,17.8z M121.5,28.8l-6.7-0.2v8.1h6.7c3.6,0,4.8-1.6,4.8-3.7
					C126.3,30.1,125.3,28.9,121.5,28.8z"/>
			</g>
			<g>
				<path class="st4" d="M130.8,63.5c0,0.2-0.1,0.2-0.2,0.2h-2.2c-0.2,0-0.3-0.1-0.3-0.3l-1.6-4.9h-5l-1.5,5c0,0.1-0.2,0.2-0.3,0.2
					h-2.2c-0.1,0-0.2-0.1-0.2-0.2c0,0,0-0.1,0-0.1l4.5-13.3c0-0.1,0.2-0.2,0.3-0.2h4c0.1,0,0.3,0.1,0.3,0.2l4.4,13.3
					C130.8,63.4,130.8,63.4,130.8,63.5z M124.3,51.7h-0.8l-1.5,4.8h3.9L124.3,51.7z"/>
				<path class="st4" d="M156.9,63.7h-5.6c-0.2,0-0.3-0.1-0.3-0.3V50.1c0-0.2,0.1-0.3,0.3-0.3h5.6c4.6,0,6.4,1.8,6.4,6.9
					C163.2,61.9,161.5,63.7,156.9,63.7z M156.5,51.7h-2.9v10h2.9c2.8,0,3.9-0.8,3.9-5C160.5,52.5,159.4,51.7,156.5,51.7z"/>
				<path class="st4" d="M176.5,63.7h-9c-0.2,0-0.3-0.1-0.3-0.3V50.1c0-0.2,0.2-0.3,0.3-0.3h9c0.2,0,0.3,0.1,0.3,0.3v1.5
					c0,0.2-0.1,0.3-0.3,0.3h-6.6v3.7h6.3c0.2,0,0.3,0.1,0.3,0.3v1.5c0,0.2-0.1,0.3-0.3,0.3h-6.3v4.1h6.6c0.2,0,0.3,0.1,0.3,0.3v1.4
					C176.8,63.6,176.6,63.7,176.5,63.7z"/>
				<path class="st4" d="M114.8,63.7h-8.7c-0.2,0-0.3-0.1-0.3-0.3V50.1c0-0.2,0.1-0.2,0.3-0.3l2.1-0.3c0.2,0,0.3,0.1,0.3,0.3v11.8
					h6.3c0.2,0,0.3,0.1,0.3,0.3v1.5C115.1,63.6,115,63.7,114.8,63.7z"/>
				<path class="st4" d="M146,63.7h-4.3c-0.2,0-0.3-0.2-0.4-0.3l-4.6-11.5h-0.6l0.2,11.6c0,0.2-0.1,0.3-0.3,0.3h-2.1
					c-0.2,0-0.3-0.1-0.3-0.3V50.1c0-0.2,0.2-0.3,0.3-0.3h4.5c0.2,0,0.3,0.1,0.4,0.3l4.7,12h0.3l-0.1-12c0-0.2,0.2-0.3,0.4-0.3h1.9
					c0.2,0,0.4,0.1,0.4,0.3v13.3C146.4,63.6,146.2,63.7,146,63.7z"/>
				<path class="st4" d="M83.5,63.9c-2.4,0-4.4-0.5-4.7-0.7c-0.2-0.1-0.3-0.2-0.3-0.5l0.2-1.2c0-0.2,0.2-0.3,0.5-0.2
					c0.4,0.1,2.3,0.6,4.1,0.6c1.5,0,2.9-0.5,2.9-2.1c0-1.6-1.4-1.8-3.2-2.1c-2-0.3-4.6-0.8-4.6-4c0-3.3,2.4-4.2,5.3-4.2
					c2.2,0,4,0.5,4.4,0.6c0.2,0.1,0.4,0.2,0.3,0.5l-0.3,1.2c-0.1,0.2-0.2,0.3-0.4,0.2c-0.9-0.2-2.2-0.6-3.9-0.6
					c-1.4,0-2.9,0.3-2.9,1.8c0,1.6,1.6,1.8,3.3,2c2.2,0.3,4.7,0.7,4.7,4.2C88.9,62.9,86.3,63.9,83.5,63.9z"/>
				<path class="st4" d="M102.5,51.8h-4.3v11.6c0,0.2-0.1,0.3-0.3,0.3h-2.1c-0.2,0-0.3-0.1-0.3-0.3V51.8h-4.3
					c-0.2,0-0.3-0.1-0.3-0.3v-1.5c0-0.2,0.1-0.3,0.3-0.3h11.4c0.2,0,0.3,0.1,0.3,0.3v1.4C102.8,51.7,102.7,51.8,102.5,51.8z"/>
				<path class="st4" d="M190.5,51.8h-4.3v11.6c0,0.2-0.1,0.3-0.3,0.3h-2.1c-0.2,0-0.3-0.1-0.3-0.3V51.8h-4.3
					c-0.2,0-0.3-0.1-0.3-0.3v-1.5c0-0.2,0.1-0.3,0.3-0.3h11.4c0.2,0,0.3,0.1,0.3,0.3v1.4C190.8,51.7,190.7,51.8,190.5,51.8z"/>
				<path class="st4" d="M73.8,51.6c0.9,1.3,1.2,3,1.2,5.2c0,4.3-1.1,7.2-6.6,7.2c-1.9,0-3.3-0.4-4.3-1.1l-1.2,1.4
					c-0.1,0.1-0.1,0.1-0.2,0.1c-0.1,0-0.1,0-0.2-0.1l-0.8-0.7c-0.1-0.1-0.1-0.1-0.1-0.2c0-0.1,0-0.1,0.1-0.2l1.3-1.5
					c-0.9-1.3-1.2-3-1.2-5.1c0-4.3,1.1-7.2,6.6-7.2c1.9,0,3.3,0.4,4.3,1l1.2-1.5C73.9,49,74,49,74,49c0.1,0,0.1,0,0.2,0.1l0.8,0.7
					c0.1,0.1,0.1,0.1,0.1,0.2c0,0.1,0,0.1-0.1,0.2L73.8,51.6z M68.4,51.5c-3.4,0-3.8,1.8-3.8,5.2c0,1.1,0.1,2.1,0.3,2.9l6.3-7.3
					C70.5,51.8,69.7,51.5,68.4,51.5z M71.9,53.8l-6.3,7.4c0.6,0.5,1.4,0.8,2.8,0.8c3.4,0,3.8-1.8,3.8-5.2
					C72.2,55.5,72.1,54.5,71.9,53.8z"/>
			</g>
		</g>
	</g>
	<rect x="0" y="0" class="st3" width="263.4" height="78.2"/>
</g>
</svg>
