<svg width="112" height="146" viewBox="0 0 112 146" fill="none" xmlns="http://www.w3.org/2000/svg">
<rect width="112" height="144.473" transform="translate(0 0.224854)" fill="#FCFAFA"/>
<path d="M18.987 19.0528L19.0731 99.0235C19.0731 105.014 23.9441 109.885 29.9352 109.885H44.4156C48.4649 110.045 52.6334 112.324 55.9669 116.161C59.2937 112.324 63.4623 110.045 67.4916 109.885H82.1444C88.1354 109.885 93.0064 105.014 93.0064 99.0235L92.9202 19.0528H18.987V19.0528Z" fill="white"/>
<path d="M55.9602 117.865L55.5361 117.348C52.3418 113.451 48.2793 111.125 44.3891 110.972H29.9351C23.3411 110.972 17.9796 105.611 17.9796 99.0168L17.8935 17.9527H94.0137L94.0999 99.0168C94.0999 105.611 88.7385 110.972 82.1444 110.972H67.5115C63.6412 111.125 59.5787 113.451 56.3844 117.348L55.9602 117.865ZM18.987 19.0528L19.0731 99.0235C19.0731 105.014 23.9441 109.885 29.9351 109.885H44.4156C48.4648 110.045 52.6334 112.324 55.9669 116.161C59.2937 112.324 63.4623 110.045 67.4916 109.885H82.1444C88.1354 109.885 93.0064 105.014 93.0064 99.0235L92.9202 19.0528H18.987V19.0528Z" fill="#17446F"/>
<path d="M21.5384 21.591L21.6246 99.0036C21.6246 101.389 22.6386 103.55 24.2556 105.067L90.3555 21.591H21.5384V21.591Z" fill="#17446F"/>
<path d="M90.3621 21.591L24.2622 105.067C25.7467 106.459 27.7415 107.314 29.9351 107.314H44.515C48.4648 107.473 52.5273 109.322 55.9602 112.483C59.3931 109.329 63.4423 107.473 67.3855 107.321H67.4849H82.1377C86.7171 107.321 90.4483 103.596 90.4483 99.0168L90.3621 21.591Z" fill="#2E857D"/>
<path d="M60.48 101.071L55.9536 97.8571L51.4206 101.071L53.0774 95.7695L48.6173 92.4493L54.1709 92.383L55.9536 87.121L57.7297 92.383L63.2833 92.4493L58.8298 95.7695L60.48 101.071Z" fill="white"/>
<path d="M55.9536 87.121L54.1709 92.383L48.6173 92.4493L53.0774 95.7695L51.4206 101.065L55.9536 97.8571L60.48 101.065L58.8298 95.7695L63.2833 92.4493L57.7297 92.383L55.9536 87.121Z" fill="white"/>
<path d="M79.2483 51.7316H79.1423C78.3139 51.7515 77.7174 51.8509 77.3264 52.0365C76.8824 52.2419 76.5112 52.5666 76.213 52.9974C75.9214 53.4215 75.5901 54.2698 75.1924 55.5953L67.485 81.8921H60.2282L60.2083 81.8125L56.0464 67.9153L51.4802 81.8921H44.4885L36.7015 55.1976C36.3569 53.9915 36.0587 53.2227 35.787 52.8582C35.5153 52.4871 35.1309 52.1955 34.6537 51.9967C34.2296 51.8244 33.9976 51.7382 33.1957 51.7316H32.7385V47.3179H47.1527V51.7316H47.0466C45.9465 51.7382 45.6152 51.7979 45.4627 51.8376C45.1778 51.9172 44.9259 52.0895 44.7205 52.3546C44.515 52.6197 44.4156 52.9179 44.4156 53.2492C44.4156 53.4215 44.4488 53.786 44.747 54.9325L49.565 72.3356L53.9522 60.0951L52.3285 54.7934C52.2954 54.7205 52.2424 54.5614 52.143 54.2036C51.911 53.342 51.5598 52.7124 51.0892 52.3413C50.6784 52.0166 50.1018 51.8178 49.386 51.7515L49.2866 51.7449V47.3179H63.4888V51.7316H62.5212C61.5934 51.7316 61.0234 51.8443 60.7252 52.0828C60.321 52.4076 60.1155 52.8251 60.1155 53.3288C60.1155 53.6667 60.2414 54.3162 60.4999 55.3103L64.8407 72.2959L69.3273 55.3169C69.7581 53.7198 69.8111 53.3288 69.8111 53.1763C69.8111 52.7124 69.6256 52.3347 69.2677 52.0828C68.9231 51.8443 68.3266 51.7316 67.4386 51.7316H66.4909L66.4843 47.3179H79.2417V51.7316H79.2483Z" fill="white"/>
<path d="M54.1709 32.3271L55.9536 27.0717L57.7297 32.3271L63.2833 32.3934L58.8298 35.7136L60.4866 41.0154L55.9536 37.8012L51.4206 41.0154L53.0774 35.7136L48.6173 32.3934L54.1709 32.3271Z" fill="white"/>
<path d="M55.9536 27.0717L54.1709 32.3271L48.6173 32.3934L53.0774 35.7136L51.4206 41.0154L55.9536 37.8012L60.48 41.0154L58.8298 35.7136L63.2833 32.3934L57.7297 32.3271L55.9536 27.0717Z" fill="white"/>
<path d="M55.9536 28.3972L57.3255 32.4663L57.4249 32.7513L57.7231 32.7579L62.0175 32.8043L58.5714 35.369L58.3328 35.5546L58.4256 35.8396L59.698 39.9352L56.1988 37.4566L55.9536 37.2843L55.7084 37.4566L52.2026 39.9352L53.4817 35.8396L53.5744 35.5546L53.3292 35.369L49.8831 32.8043L54.1775 32.7579L54.4824 32.7513L54.5752 32.4663L55.9536 28.3972Z" fill="#2E857D"/>
<path d="M55.9536 88.4531L57.3255 92.5222L57.4249 92.8071L57.7231 92.8138L62.0175 92.8602L58.5714 95.4249L58.3328 95.6038L58.4256 95.8954L59.698 99.991L56.1988 97.5125L55.9536 97.3335L55.7084 97.5125L52.2026 99.991L53.4817 95.8954L53.5678 95.6038L53.3292 95.4249L49.8831 92.8602L54.1775 92.8138L54.4824 92.8071L54.5752 92.5222L55.9536 88.4531Z" fill="#17446F"/>
</svg>
